P2
13 13
255
62 62 62 63 63 64 64 64 63 63 62 62 62 
62 62 63 63 65 66 66 66 65 63 63 62 62 
62 61 60 58 54 51 49 51 54 58 60 61 62 
61 59 54 42 24 7 0 7 24 42 54 59 61 
61 59 54 43 27 10 4 10 27 43 54 59 61 
63 66 73 90 114 137 147 137 114 90 73 66 63 
64 70 88 124 179 232 255 232 179 124 88 70 64 
63 66 73 90 114 137 147 137 114 90 73 66 63 
61 59 54 43 27 10 4 10 27 43 54 59 61 
61 59 54 42 24 7 0 7 24 42 54 59 61 
62 61 60 58 54 51 49 51 54 58 60 61 62 
62 62 63 63 65 66 66 66 65 63 63 62 62 
62 62 62 63 63 64 64 64 63 63 62 62 62 
