P2
13 13
255
67 67 67 67 66 66 67 68 68 68 67 67 67 
67 68 68 68 64 60 60 65 70 70 68 67 67 
67 68 71 73 69 54 42 48 63 71 70 68 67 
67 68 73 87 94 72 30 14 36 62 71 70 68 
66 64 69 94 136 141 77 7 0 36 63 70 68 
66 60 54 72 141 213 189 80 7 14 48 65 68 
67 60 42 30 77 189 255 189 77 30 42 60 67 
68 65 48 14 7 80 189 213 141 72 54 60 66 
68 70 63 36 0 7 77 141 136 94 69 64 66 
68 70 71 62 36 14 30 72 94 87 73 68 67 
67 68 70 71 63 48 42 54 69 73 71 68 67 
67 67 68 70 70 65 60 60 64 68 68 68 67 
67 67 67 68 68 68 67 66 66 67 67 67 67 
