P2
13 13
255
62 62 62 61 61 63 64 63 61 61 62 62 62 
62 62 61 59 59 66 70 66 59 59 61 62 62 
62 63 60 54 54 73 88 73 54 54 60 63 62 
63 63 58 42 43 90 124 90 43 42 58 63 63 
63 65 54 24 27 114 179 114 27 24 54 65 63 
64 66 51 7 10 137 232 137 10 7 51 66 64 
64 66 49 0 4 147 255 147 4 0 49 66 64 
64 66 51 7 10 137 232 137 10 7 51 66 64 
63 65 54 24 27 114 179 114 27 24 54 65 63 
63 63 58 42 43 90 124 90 43 42 58 63 63 
62 63 60 54 54 73 88 73 54 54 60 63 62 
62 62 61 59 59 66 70 66 59 59 61 62 62 
62 62 62 61 61 63 64 63 61 61 62 62 62 
