P2
17 17
255
0 0 0 0 0 0 0 0 0 0 0 0 0 0 0 0 0 
0 0 0 0 0 0 0 0 0 0 0 0 0 0 0 0 0 
0 0 0 0 0 0 0 0 0 0 0 0 0 0 0 0 0 
0 0 0 0 0 0 0 0 0 0 0 0 0 0 0 0 0 
0 0 0 0 0 0 0 0 0 0 0 0 0 0 0 0 0 
0 0 0 0 0 0 2 7 11 7 2 0 0 0 0 0 0 
0 0 0 0 0 2 15 44 63 44 15 2 0 0 0 0 0 
0 0 0 0 0 7 44 127 180 127 44 7 0 0 0 0 0 
0 0 0 0 0 11 63 180 255 180 63 11 0 0 0 0 0 
0 0 0 0 0 7 44 127 180 127 44 7 0 0 0 0 0 
0 0 0 0 0 2 15 44 63 44 15 2 0 0 0 0 0 
0 0 0 0 0 0 2 7 11 7 2 0 0 0 0 0 0 
0 0 0 0 0 0 0 0 0 0 0 0 0 0 0 0 0 
0 0 0 0 0 0 0 0 0 0 0 0 0 0 0 0 0 
0 0 0 0 0 0 0 0 0 0 0 0 0 0 0 0 0 
0 0 0 0 0 0 0 0 0 0 0 0 0 0 0 0 0 
0 0 0 0 0 0 0 0 0 0 0 0 0 0 0 0 0 
